<mxfile host="58785c27-7fe6-41e3-a5c2-4d61b536e622" modified="2020-09-15T12:20:07.412Z" agent="5.0 (X11; Linux x86_64) AppleWebKit/537.36 (KHTML, like Gecko) Code/1.47.0 Chrome/78.0.3904.130 Electron/7.3.2 Safari/537.36" etag="nfWXZAML2oUbKPwIC6u2" version="13.1.3">
    <diagram id="6hGFLwfOUW9BJ-s0fimq" name="Page-1">
        <mxGraphModel dx="1064" dy="605" grid="1" gridSize="10" guides="1" tooltips="1" connect="1" arrows="1" fold="1" page="1" pageScale="1" pageWidth="827" pageHeight="1169" math="0" shadow="0">
            <root>
                <mxCell id="0"/>
                <mxCell id="1" parent="0"/>
                <mxCell id="3" value="custom" style="rounded=0;whiteSpace=wrap;html=1;" vertex="1" parent="1">
                    <mxGeometry x="220" y="220" width="120" height="60" as="geometry"/>
                </mxCell>
                <mxCell id="4" value="default" style="rounded=0;whiteSpace=wrap;html=1;" vertex="1" parent="1">
                    <mxGeometry x="50" y="220" width="120" height="60" as="geometry"/>
                </mxCell>
                <mxCell id="9" value="custom" style="rounded=0;whiteSpace=wrap;html=1;" vertex="1" parent="1">
                    <mxGeometry x="584" y="220" width="120" height="60" as="geometry"/>
                </mxCell>
                <mxCell id="10" value="default" style="rounded=0;whiteSpace=wrap;html=1;" vertex="1" parent="1">
                    <mxGeometry x="414" y="220" width="120" height="60" as="geometry"/>
                </mxCell>
                <mxCell id="11" value="baseAddListener" style="rounded=0;whiteSpace=wrap;html=1;" vertex="1" parent="1">
                    <mxGeometry x="494" y="300" width="120" height="60" as="geometry"/>
                </mxCell>
                <mxCell id="12" value="baseAdd" style="rounded=0;whiteSpace=wrap;html=1;" vertex="1" parent="1">
                    <mxGeometry x="137" y="300" width="120" height="60" as="geometry"/>
                </mxCell>
                <mxCell id="13" value="add" style="text;html=1;align=center;verticalAlign=middle;resizable=0;points=[];autosize=1;" vertex="1" parent="1">
                    <mxGeometry x="177" y="175" width="40" height="20" as="geometry"/>
                </mxCell>
                <mxCell id="14" value="addListener" style="text;html=1;align=center;verticalAlign=middle;resizable=0;points=[];autosize=1;" vertex="1" parent="1">
                    <mxGeometry x="520" y="175" width="80" height="20" as="geometry"/>
                </mxCell>
            </root>
        </mxGraphModel>
    </diagram>
</mxfile>